<?xml version="1.0" standalone="no"?>
<!DOCTYPE svg PUBLIC "-//W3C//DTD SVG 20010904//EN"
 "http://www.w3.org/TR/2001/REC-SVG-20010904/DTD/svg10.dtd">
<svg version="1.0" xmlns="http://www.w3.org/2000/svg"
 width="500.000000pt" height="500.000000pt" viewBox="0 0 500.000000 500.000000"
 preserveAspectRatio="xMidYMid meet">

<g transform="translate(0.000000,500.000000) scale(0.100000,-0.100000)"
fill="#FFFFFF" stroke="none">
<path d="M2320 4209 c-352 -57 -672 -215 -919 -453 -74 -72 -201 -217 -201
-229 0 -3 8 -3 18 -1 9 3 47 -1 84 -9 93 -20 150 -9 230 44 74 49 118 103 144
177 39 113 135 184 240 178 69 -3 107 -21 157 -72 98 -101 83 -279 -30 -357
-73 -50 -115 -56 -229 -35 -54 10 -73 9 -124 -5 -108 -30 -168 -87 -225 -213
-41 -90 -62 -115 -125 -152 -93 -55 -220 -26 -287 66 -15 20 -30 41 -33 45 -9
10 -74 -174 -95 -267 -72 -318 -59 -615 41 -926 47 -144 46 -143 88 -95 20 22
48 65 63 95 24 47 28 67 28 140 0 106 -14 145 -75 217 -26 31 -53 73 -59 93
-17 56 -14 140 7 177 58 107 158 157 262 133 130 -30 163 -24 273 50 77 52 95
77 133 184 23 66 79 121 145 140 65 20 83 20 143 2 103 -31 166 -118 166 -229
0 -87 -42 -153 -129 -205 -38 -22 -54 -25 -110 -23 -188 9 -214 7 -266 -19
-81 -41 -138 -104 -170 -190 -18 -46 -43 -90 -67 -116 -52 -56 -78 -127 -78
-209 0 -82 24 -146 82 -222 74 -95 86 -168 44 -258 -36 -79 -110 -130 -210
-147 -17 -3 -12 -12 31 -63 132 -158 323 -315 503 -413 138 -76 396 -160 542
-177 l57 -7 -21 63 c-36 107 -68 145 -171 200 -52 28 -72 33 -127 33 -36 0
-84 -4 -107 -8 -143 -28 -273 76 -273 219 0 148 88 235 237 235 118 0 179 -45
228 -171 37 -94 63 -126 140 -172 67 -40 73 -42 150 -41 44 0 108 2 142 4 53
2 69 -1 115 -27 111 -63 156 -182 109 -287 l-21 -48 58 7 c210 25 494 135 689
266 125 84 285 232 373 344 l32 40 -49 9 c-26 5 -77 9 -113 10 -55 1 -76 -4
-130 -31 -92 -45 -133 -92 -159 -180 -27 -91 -85 -155 -163 -178 -65 -19 -82
-19 -147 1 -71 21 -125 71 -151 141 -11 31 -18 58 -16 61 9 8 -23 61 -57 94
-18 17 -64 46 -104 65 -78 37 -65 36 -241 17 -48 -5 -73 -2 -109 11 -55 21
-130 93 -138 132 -23 110 -54 154 -147 211 -76 45 -104 49 -243 37 -96 -9
-147 3 -201 46 -79 61 -108 191 -64 287 48 107 188 159 296 113 71 -31 118
-83 154 -171 37 -89 93 -153 165 -185 73 -32 111 -37 192 -21 153 29 261 -33
309 -177 33 -100 67 -138 173 -191 59 -30 99 -34 224 -21 57 6 89 4 118 -5 56
-19 134 -1 213 48 69 43 102 86 137 179 13 36 39 81 56 100 69 72 176 92 273
50 47 -21 109 -81 110 -107 1 -26 28 30 60 125 99 296 116 616 48 920 -23 107
-87 295 -99 295 -5 0 -9 -5 -9 -10 0 -6 -22 -37 -49 -70 -61 -73 -76 -115 -75
-210 0 -88 25 -155 79 -210 45 -48 65 -100 65 -176 0 -76 -11 -109 -53 -152
-96 -100 -230 -105 -339 -11 -38 32 -51 52 -64 96 -26 91 -11 146 71 251 56
72 75 127 75 211 0 79 -17 120 -87 212 -63 83 -80 143 -63 223 20 95 119 175
218 176 23 0 42 3 42 6 0 30 -227 264 -335 345 -217 164 -518 292 -760 324
-27 4 -59 9 -69 12 -18 5 -18 4 2 -21 11 -15 31 -57 43 -94 26 -80 74 -131
158 -171 60 -28 118 -32 251 -16 50 5 74 3 103 -8 62 -26 105 -66 133 -123 23
-46 26 -63 22 -118 -6 -73 -40 -142 -86 -174 -49 -35 -72 -98 -72 -193 0 -98
21 -150 94 -236 25 -30 50 -71 57 -95 30 -114 -41 -242 -158 -284 -127 -45
-254 23 -308 166 -15 38 -26 72 -26 75 2 11 -88 83 -142 114 -65 37 -126 47
-187 31 -58 -16 -131 -14 -173 4 -42 17 -104 71 -122 105 -22 44 -28 114 -14
175 31 139 176 211 321 159 66 -23 102 -65 143 -162 19 -46 41 -94 49 -107 26
-39 151 -106 207 -112 l49 -5 22 49 c17 37 22 68 22 124 -1 86 -21 136 -85
208 -21 24 -46 65 -55 90 -49 134 -84 175 -194 226 -60 28 -111 32 -191 15
-87 -19 -182 10 -236 71 -56 63 -68 201 -24 275 11 19 17 34 13 34 -4 -1 -32
-5 -62 -10z m367 -1479 c61 -35 94 -75 123 -150 34 -89 69 -131 145 -175 76
-44 60 -42 275 -33 62 2 82 -2 117 -20 151 -79 179 -267 58 -385 -48 -47 -76
-55 -171 -53 -91 3 -124 17 -175 73 -35 39 -48 65 -68 140 -15 55 -66 104
-154 148 -76 38 -120 43 -206 23 -103 -23 -219 29 -270 122 -20 35 -25 57 -24
111 2 70 15 106 55 149 51 57 104 79 188 79 43 1 66 -6 107 -29z"/>
</g>
</svg>
